<svg width="24" height="23" viewBox="0 0 24 23" fill="none" xmlns="http://www.w3.org/2000/svg">
<path d="M12.1496 23H11.2519C11.2029 22.9839 11.1525 22.9719 11.1014 22.9643C9.72563 22.8762 8.37956 22.5245 7.13656 21.9283C5.45154 21.1601 3.9801 19.9913 2.8505 18.5238C1.72091 17.0563 0.967483 15.3347 0.655959 13.5093C0.572786 13.0858 0.53499 12.6535 0.476562 12.2253V10.7886C0.494434 10.6415 0.51427 10.4945 0.530767 10.3467C0.75326 7.93489 1.75795 5.66183 3.39172 3.8737C4.66407 2.40633 6.29521 1.29383 8.12584 0.645067C9.95647 -0.00369424 11.9241 -0.166555 13.8365 0.172158C16.1388 0.499224 18.2717 1.56774 19.9121 3.21586C21.3496 4.54615 22.4106 6.23228 22.9877 8.10387C23.5649 9.97547 23.6378 11.9661 23.1992 13.8749C22.8753 15.5429 22.1742 17.1147 21.1496 18.4701C20.125 19.8255 18.8042 20.9288 17.2878 21.6954C16.6138 22.0587 15.9005 22.3436 15.1617 22.5449V14.0523H17.6226C17.7477 13.0852 17.8694 12.1414 17.9952 11.1654H15.1658C15.1585 11.1279 15.1533 11.09 15.15 11.0519C15.15 10.401 15.141 9.74997 15.1582 9.09903C15.1455 8.94798 15.1657 8.79604 15.2171 8.65347C15.2686 8.5109 15.3502 8.38112 15.4564 8.27303C15.5627 8.16494 15.6912 8.08107 15.8328 8.02718C15.9745 7.97329 16.1262 7.95059 16.2774 7.96072C16.7922 7.93666 17.3084 7.9484 17.826 7.94428H18.0618V5.36795C17.1529 5.25303 16.2345 5.23138 15.3212 5.30334C14.869 5.35526 14.4281 5.47953 14.0152 5.67119C13.4725 5.93488 13.0147 6.34583 12.6943 6.85716C12.3739 7.36848 12.2038 7.95961 12.2033 8.56302C12.1469 9.33701 12.1791 10.1184 12.1722 10.8958C12.1722 10.9825 12.1722 11.0698 12.1722 11.1818H9.71691V14.0496H12.1722V14.315C12.1722 17.1282 12.1722 19.9416 12.1722 22.7553C12.1716 22.8371 12.1572 22.9182 12.1496 23Z" fill="#0A356E"/>
</svg>
