<svg width="24" height="23" viewBox="0 0 24 23" fill="none" xmlns="http://www.w3.org/2000/svg">
<path d="M23.4239 5.30046V17.6958C23.3534 18.1294 23.2605 18.559 23.1455 18.983C22.7766 20.1519 22.0427 21.1719 21.0517 21.8933C20.0608 22.6148 18.8648 22.9998 17.639 22.9919C13.8297 23.0027 10.0205 23.0027 6.21167 22.9919C5.00437 23.0083 3.82465 22.6303 2.85176 21.9152C2.08159 21.3755 1.45732 20.6532 1.03488 19.813C0.612435 18.9727 0.405125 18.0408 0.431295 17.1007C0.427849 13.3889 0.427849 9.67694 0.431295 5.96507C0.42654 5.58372 0.455409 5.20269 0.51765 4.82641C0.664831 3.83622 1.07531 2.90382 1.70625 2.1266C2.33719 1.34939 3.16537 0.755893 4.10418 0.408338C4.63515 0.233278 5.17805 0.0968207 5.7287 0H18.1241C18.2851 0.0287989 18.4461 0.0554482 18.6071 0.085724C19.5878 0.237621 20.5107 0.646111 21.2825 1.2699C22.0543 1.8937 22.6473 2.71056 23.0015 3.63755C23.1841 4.1804 23.3253 4.73627 23.4239 5.30046ZM16.7181 11.4967C16.7139 10.2291 16.2089 9.01443 15.3132 8.11737C14.4175 7.2203 13.2036 6.71343 11.936 6.7072C10.6649 6.70915 9.44637 7.21447 8.54686 8.11259C7.64735 9.01071 7.14006 10.2285 7.13616 11.4996C7.14103 12.7709 7.64923 13.9885 8.54938 14.8861C9.44954 15.7838 10.6685 16.2885 11.9398 16.2899C13.2074 16.2825 14.4206 15.7747 15.3155 14.8769C16.2105 13.9792 16.7146 12.7644 16.7181 11.4967ZM18.1537 6.70207C18.5317 6.7019 18.8944 6.55286 19.1633 6.28724C19.4322 6.02161 19.5859 5.66077 19.5907 5.2828C19.5904 4.90103 19.4393 4.53479 19.1705 4.26366C18.9017 3.99254 18.5369 3.83838 18.1552 3.83468C17.7774 3.83661 17.4155 3.98713 17.1477 4.25366C16.88 4.52019 16.7278 4.88139 16.7241 5.25918C16.7219 5.44814 16.7574 5.63559 16.8283 5.81075C16.8992 5.98592 17.0041 6.14524 17.1371 6.27949C17.2701 6.41373 17.4285 6.52028 17.603 6.59281C17.7775 6.66535 17.9647 6.70247 18.1537 6.70207Z" fill="#FDE512"/>
</svg>
