<svg width="79" height="48" viewBox="0 0 79 48" fill="none" xmlns="http://www.w3.org/2000/svg">
<g filter="url(#filter0_d_443_270)">
<mask id="path-1-inside-1_443_270" fill="white">
<path d="M29.0687 24.4018C26.1425 27.4072 22.4714 27.1219 19.408 24.2814C17.5473 22.5544 9.91308 15.6562 5.03809 18.19C6.66126 13.3992 7.89366 9.54418 10.1693 5.63226C13.8646 -0.713637 22.8431 -1.84352 28.7493 2.99015C32.0097 5.65838 35.1843 9.51339 38.8803 12.9677C38.8803 12.9677 34.1246 19.2088 29.0687 24.4022"/>
</mask>
<path d="M29.0687 24.4018C26.1425 27.4072 22.4714 27.1219 19.408 24.2814C17.5473 22.5544 9.91308 15.6562 5.03809 18.19C6.66126 13.3992 7.89366 9.54418 10.1693 5.63226C13.8646 -0.713637 22.8431 -1.84352 28.7493 2.99015C32.0097 5.65838 35.1843 9.51339 38.8803 12.9677C38.8803 12.9677 34.1246 19.2088 29.0687 24.4022" fill="#009DE6"/>
<path d="M19.408 24.2814L18.7277 25.0143L18.7281 25.0147L19.408 24.2814ZM5.03809 18.19L4.09097 17.8691L3.29313 20.2239L5.49926 19.0773L5.03809 18.19ZM10.1693 5.63226L9.30514 5.12906L9.30492 5.12943L10.1693 5.63226ZM28.7493 2.99015L28.1159 3.76402L28.1159 3.76404L28.7493 2.99015ZM38.8803 12.9677L39.6757 13.5738L40.2237 12.8546L39.5631 12.2371L38.8803 12.9677ZM28.3522 23.7042C27.0552 25.0364 25.6667 25.5752 24.3202 25.5343C22.954 25.4927 21.4909 24.8489 20.0879 23.5481L18.7281 25.0147C20.3886 26.5543 22.2927 27.4735 24.2594 27.5333C26.2459 27.5938 28.156 26.7726 29.7852 25.0994L28.3522 23.7042ZM20.0883 23.5484C19.1495 22.6771 16.7103 20.4583 13.8618 18.7768C12.4379 17.9362 10.8667 17.2025 9.29499 16.8537C7.71918 16.5041 6.06943 16.5269 4.57691 17.3027L5.49926 19.0773C6.44424 18.5861 7.57689 18.5211 8.86174 18.8062C10.1507 19.0923 11.5184 19.7159 12.8451 20.4991C15.4976 22.0649 17.8058 24.1587 18.7277 25.0143L20.0883 23.5484ZM5.9852 18.5109C7.61832 13.6907 8.81909 9.94207 11.0337 6.13509L9.30492 5.12943C6.96823 9.14628 5.7042 13.1077 4.09097 17.8691L5.9852 18.5109ZM11.0335 6.13547C14.3757 0.395832 22.6167 -0.736647 28.1159 3.76402L29.3826 2.21628C23.0696 -2.95039 13.3534 -1.82311 9.30514 5.12906L11.0335 6.13547ZM28.1159 3.76404C29.6947 5.05604 31.2663 6.64701 32.9307 8.37739C34.5826 10.0947 36.3246 11.9479 38.1975 13.6983L39.5631 12.2371C37.7399 10.5332 36.0467 8.73178 34.3721 6.9909C32.7102 5.26314 31.0643 3.59249 29.3826 2.21627L28.1159 3.76404ZM38.8803 12.9677C38.0849 12.3616 38.0849 12.3616 38.0849 12.3616C38.0849 12.3617 38.0849 12.3617 38.0848 12.3618C38.0847 12.3619 38.0845 12.3621 38.0843 12.3624C38.0838 12.3631 38.083 12.3641 38.082 12.3655C38.0798 12.3683 38.0766 12.3726 38.0722 12.3783C38.0634 12.3898 38.0501 12.4071 38.0324 12.4301C37.9971 12.4761 37.9444 12.5447 37.8752 12.634C37.7369 12.8127 37.5332 13.0745 37.2727 13.4052C36.7516 14.0667 36.0038 15.0033 35.0988 16.1014C33.2866 18.3003 30.8532 21.1356 28.3522 23.7046L29.7852 25.0998C32.3401 22.4754 34.8125 19.5935 36.6422 17.3734C37.558 16.2621 38.3152 15.3139 38.8438 14.6429C39.1081 14.3073 39.3154 14.041 39.4569 13.8581C39.5277 13.7666 39.582 13.696 39.6189 13.648C39.6373 13.6241 39.6513 13.6057 39.6608 13.5933C39.6656 13.5871 39.6692 13.5823 39.6717 13.5791C39.6729 13.5774 39.6739 13.5762 39.6745 13.5753C39.6749 13.5749 39.6751 13.5745 39.6753 13.5743C39.6754 13.5742 39.6755 13.574 39.6756 13.574C39.6756 13.5739 39.6757 13.5738 38.8803 12.9677Z" fill="black" mask="url(#path-1-inside-1_443_270)"/>
<mask id="path-3-inside-2_443_270" fill="white">
<path d="M69.0136 4.9962C68.9999 4.97359 68.9863 4.95293 68.9707 4.93072C65.0426 -0.790804 54.4093 -1.71724 49.1587 3.4142C44.7408 7.73496 30.81 31.6426 23.6523 29.914C27.0149 33.5625 30.3276 36.9584 33.6948 39.8277C34.9186 40.8703 36.5555 41.6942 38.1256 42.0126C42.7335 42.948 46.4018 41.0733 49.3712 37.6034C52.4955 33.9515 55.4942 30.1806 58.7975 26.6904C63.2782 21.953 68.1513 17.9 76.023 21.6708C73.683 15.6297 72.2876 9.81818 69.0136 4.99464"/>
</mask>
<path d="M69.0136 4.9962C68.9999 4.97359 68.9863 4.95293 68.9707 4.93072C65.0426 -0.790804 54.4093 -1.71724 49.1587 3.4142C44.7408 7.73496 30.81 31.6426 23.6523 29.914C27.0149 33.5625 30.3276 36.9584 33.6948 39.8277C34.9186 40.8703 36.5555 41.6942 38.1256 42.0126C42.7335 42.948 46.4018 41.0733 49.3712 37.6034C52.4955 33.9515 55.4942 30.1806 58.7975 26.6904C63.2782 21.953 68.1513 17.9 76.023 21.6708C73.683 15.6297 72.2876 9.81818 69.0136 4.99464" fill="#FDE512"/>
<path d="M68.9707 4.93072L68.1462 5.49674L68.1523 5.50539L68.9707 4.93072ZM49.1587 3.4142L48.4597 2.69903L48.4595 2.69928L49.1587 3.4142ZM23.6523 29.914L23.8871 28.942L20.6835 28.1683L22.917 30.5918L23.6523 29.914ZM33.6948 39.8277L33.0462 40.5889L33.0463 40.5889L33.6948 39.8277ZM38.1256 42.0126L38.3246 41.0326L38.3244 41.0326L38.1256 42.0126ZM49.3712 37.6034L50.131 38.2536L50.1311 38.2535L49.3712 37.6034ZM58.7975 26.6904L59.5238 27.3778L59.524 27.3776L58.7975 26.6904ZM76.023 21.6708L75.591 22.5727L77.8671 23.663L76.9555 21.3097L76.023 21.6708ZM69.8696 4.47929C69.842 4.43358 69.8153 4.39349 69.7891 4.35605L68.1523 5.50539C68.1551 5.50936 68.1564 5.51135 68.1569 5.51205C68.1572 5.51264 68.1574 5.51284 68.1575 5.5131L69.8696 4.47929ZM69.7951 4.36472C67.6112 1.18382 63.6476 -0.572671 59.6406 -0.894197C55.6274 -1.21622 51.3433 -0.119109 48.4597 2.69903L49.8576 4.12938C52.2246 1.81607 55.8825 0.810681 59.4806 1.0994C63.0849 1.38861 66.402 2.95609 68.1463 5.49671L69.7951 4.36472ZM48.4595 2.69928C47.2783 3.85447 45.52 6.24713 43.5055 9.03501C41.4604 11.8652 39.0953 15.1849 36.6453 18.3164C34.1902 21.4545 31.6875 24.3541 29.3808 26.3549C28.2271 27.3556 27.1589 28.0991 26.2025 28.5412C25.2429 28.9848 24.4828 29.0858 23.8871 28.942L23.4176 30.8861C24.6113 31.1744 25.8523 30.9064 27.0418 30.3566C28.2345 29.8052 29.4635 28.9307 30.6913 27.8657C33.1478 25.7349 35.746 22.7116 38.2205 19.5488C40.7002 16.3794 43.0935 13.0201 45.1266 10.2064C47.1903 7.35039 48.8301 5.13432 49.8579 4.12913L48.4595 2.69928ZM22.917 30.5918C26.2884 34.2497 29.633 37.6804 33.0462 40.5889L34.3434 39.0666C31.0221 36.2364 27.7415 32.8753 24.3877 29.2363L22.917 30.5918ZM33.0463 40.5889C34.3911 41.7346 36.1807 42.6386 37.9269 42.9927L38.3244 41.0326C36.9302 40.7499 35.4462 40.006 34.3433 39.0665L33.0463 40.5889ZM37.9267 42.9927C42.9865 44.0198 46.9972 41.9156 50.131 38.2536L48.6115 36.9532C45.8064 40.2311 42.4804 41.8763 38.3246 41.0326L37.9267 42.9927ZM50.1311 38.2535C53.2871 34.5645 56.243 30.8443 59.5238 27.3778L58.0712 26.003C54.7455 29.517 51.704 33.3384 48.6114 36.9533L50.1311 38.2535ZM59.524 27.3776C61.7597 25.0139 63.9716 22.9607 66.5184 21.9151C68.9951 20.8983 71.886 20.7979 75.591 22.5727L76.4551 20.769C72.2883 18.773 68.8068 18.8137 65.7588 20.065C62.781 21.2875 60.3161 23.6296 58.071 26.0033L59.524 27.3776ZM76.9555 21.3097C76.3774 19.817 75.8563 18.3355 75.3456 16.8665C74.8365 15.4023 74.3357 13.9451 73.8053 12.526C72.744 9.68663 71.5438 6.94177 69.841 4.43303L68.1862 5.55625C69.7574 7.87104 70.8919 10.4437 71.9319 13.2262C72.4521 14.6182 72.9435 16.048 73.4565 17.5233C73.9678 18.9938 74.4987 20.5041 75.0905 22.032L76.9555 21.3097Z" fill="black" mask="url(#path-3-inside-2_443_270)"/>
<mask id="path-5-inside-3_443_270" fill="white">
<path d="M13.6282 46.3024C13.1744 46.3606 12.716 46.3755 12.2594 46.3468C5.27407 45.8538 0.235673 39.9463 1.09562 33.1288C1.50434 29.8908 2.33582 27.1162 3.26831 23.9635C4.10096 21.1468 5.59972 20.536 7.43155 20.6506C13.0374 21.0014 22.6193 28.6175 23.7394 35.8165C24.3458 39.714 20.6584 44.6783 15.9597 45.911C15.1407 46.1262 14.2916 46.2228 13.6282 46.3008"/>
</mask>
<path d="M13.6282 46.3024C13.1744 46.3606 12.716 46.3755 12.2594 46.3468C5.27407 45.8538 0.235673 39.9463 1.09562 33.1288C1.50434 29.8908 2.33582 27.1162 3.26831 23.9635C4.10096 21.1468 5.59972 20.536 7.43155 20.6506C13.0374 21.0014 22.6193 28.6175 23.7394 35.8165C24.3458 39.714 20.6584 44.6783 15.9597 45.911C15.1407 46.1262 14.2916 46.2228 13.6282 46.3008" fill="#FDE512"/>
<path d="M12.2594 46.3468L12.1889 47.3443L12.1967 47.3448L12.2594 46.3468ZM1.09562 33.1288L0.103494 33.0036L0.103483 33.0037L1.09562 33.1288ZM3.26831 23.9635L4.22724 24.2471L4.22729 24.247L3.26831 23.9635ZM7.43155 20.6506L7.494 19.6526L7.49398 19.6526L7.43155 20.6506ZM23.7394 35.8165L22.7513 35.9703L22.7513 35.9703L23.7394 35.8165ZM15.9597 45.911L15.7059 44.9438L15.7056 44.9439L15.9597 45.911ZM13.501 45.3105C13.1101 45.3606 12.7153 45.3734 12.322 45.3488L12.1967 47.3448C12.7167 47.3775 13.2387 47.3605 13.7555 47.2942L13.501 45.3105ZM12.3298 45.3493C5.88691 44.8945 1.30335 39.4727 2.08776 33.254L0.103483 33.0037C-0.831999 40.42 4.66123 46.813 12.1889 47.3443L12.3298 45.3493ZM2.08775 33.2541C2.48466 30.1096 3.29121 27.4118 4.22724 24.2471L2.30937 23.6799C1.38043 26.8206 0.524022 29.672 0.103494 33.0036L2.08775 33.2541ZM4.22729 24.247C4.60561 22.9671 5.08932 22.3454 5.54482 22.0298C5.99704 21.7164 6.5734 21.5989 7.36912 21.6487L7.49398 19.6526C6.45788 19.5878 5.36894 19.7184 4.40566 20.3859C3.44565 21.0511 2.76365 22.1431 2.30933 23.68L4.22729 24.247ZM7.3691 21.6487C9.84863 21.8038 13.4393 23.6288 16.607 26.4162C19.7644 29.1946 22.243 32.7034 22.7513 35.9703L24.7275 35.6628C24.1157 31.7306 21.2433 27.8319 17.9282 24.9147C14.6235 22.0067 10.6203 19.8482 7.494 19.6526L7.3691 21.6487ZM22.7513 35.9703C22.9994 37.565 22.3727 39.5115 21.0434 41.2572C19.7243 42.9894 17.8082 44.3922 15.7059 44.9438L16.2134 46.8783C18.8098 46.1971 21.0868 44.5014 22.6345 42.4689C24.172 40.4499 25.0858 37.9656 24.7275 35.6628L22.7513 35.9703ZM15.7056 44.9439C14.9658 45.1382 14.187 45.2283 13.5115 45.3076L13.7449 47.294C14.3963 47.2174 15.3156 47.1142 16.2137 46.8782L15.7056 44.9439Z" fill="black" mask="url(#path-5-inside-3_443_270)"/>
<mask id="path-7-inside-4_443_270" fill="white">
<path d="M78.9999 34.157C78.9722 39.6438 75.346 44.6182 70.4472 45.8884C65.0083 47.2989 59.3989 45.0247 57.0616 40.0422C56.3495 38.5221 56.2267 35.744 56.8783 34.2813C58.5436 29.6101 62.2689 25.135 66.9345 23.6579C73.4576 21.5922 78.9075 25.2473 78.9999 34.1577"/>
</mask>
<path d="M78.9999 34.157C78.9722 39.6438 75.346 44.6182 70.4472 45.8884C65.0083 47.2989 59.3989 45.0247 57.0616 40.0422C56.3495 38.5221 56.2267 35.744 56.8783 34.2813C58.5436 29.6101 62.2689 25.135 66.9345 23.6579C73.4576 21.5922 78.9075 25.2473 78.9999 34.1577" fill="white"/>
<path d="M70.4472 45.8884L70.1962 44.9204L70.1962 44.9204L70.4472 45.8884ZM57.0616 40.0422L56.1561 40.4664L56.1563 40.4669L57.0616 40.0422ZM56.8783 34.2813L57.7918 34.6882L57.8074 34.6532L57.8203 34.6171L56.8783 34.2813ZM66.9345 23.6579L67.2363 24.6112L67.2364 24.6112L66.9345 23.6579ZM77.9999 34.1519C77.9742 39.2385 74.6061 43.777 70.1962 44.9204L70.6982 46.8564C76.0859 45.4594 79.9702 40.0492 79.9999 34.162L77.9999 34.1519ZM70.1962 44.9204C65.1629 46.2257 60.0744 44.1101 57.967 39.6175L56.1563 40.4669C58.7234 45.9393 64.8537 48.3721 70.6982 46.8564L70.1962 44.9204ZM57.9672 39.6179C57.687 39.0198 57.4933 38.0899 57.4579 37.1044C57.4223 36.1106 57.5535 35.2231 57.7918 34.6882L55.9649 33.8743C55.5515 34.8022 55.4183 36.0351 55.4592 37.1761C55.5004 38.3253 55.7242 39.5445 56.1561 40.4664L57.9672 39.6179ZM57.8203 34.6171C59.4143 30.1459 62.9533 25.9673 67.2363 24.6112L66.6326 22.7045C61.5846 24.3028 57.673 29.0744 55.9364 33.9455L57.8203 34.6171ZM67.2364 24.6112C70.2589 23.6541 72.8815 24.0594 74.7502 25.5695C76.6333 27.0914 77.9557 29.9006 78 34.1681L79.9998 34.1474C79.9517 29.5044 78.503 26.0309 76.0073 24.014C73.4971 21.9854 70.1332 21.596 66.6326 22.7045L67.2364 24.6112Z" fill="black" mask="url(#path-7-inside-4_443_270)"/>
<mask id="path-9-inside-5_443_270" fill="white">
<path d="M78.9999 34.157C78.9722 39.6438 75.346 44.6182 70.4472 45.8884C65.0083 47.2989 59.3989 45.0247 57.0616 40.0422C56.3495 38.5221 56.2267 35.744 56.8783 34.2813C58.5436 29.6101 62.2689 25.135 66.9345 23.6579C73.4576 21.5922 78.9075 25.2473 78.9999 34.1577"/>
</mask>
<path d="M78.9999 34.157C78.9722 39.6438 75.346 44.6182 70.4472 45.8884C65.0083 47.2989 59.3989 45.0247 57.0616 40.0422C56.3495 38.5221 56.2267 35.744 56.8783 34.2813C58.5436 29.6101 62.2689 25.135 66.9345 23.6579C73.4576 21.5922 78.9075 25.2473 78.9999 34.1577" fill="#009DE6"/>
<path d="M70.4472 45.8884L70.1962 44.9204L70.1962 44.9204L70.4472 45.8884ZM57.0616 40.0422L56.1561 40.4664L56.1563 40.4669L57.0616 40.0422ZM56.8783 34.2813L57.7918 34.6882L57.8074 34.6532L57.8203 34.6171L56.8783 34.2813ZM66.9345 23.6579L67.2363 24.6112L67.2364 24.6112L66.9345 23.6579ZM77.9999 34.1519C77.9742 39.2385 74.6061 43.777 70.1962 44.9204L70.6982 46.8564C76.0859 45.4594 79.9702 40.0492 79.9999 34.162L77.9999 34.1519ZM70.1962 44.9204C65.1629 46.2257 60.0744 44.1101 57.967 39.6175L56.1563 40.4669C58.7234 45.9393 64.8537 48.3721 70.6982 46.8564L70.1962 44.9204ZM57.9672 39.6179C57.687 39.0198 57.4933 38.0899 57.4579 37.1044C57.4223 36.1106 57.5535 35.2231 57.7918 34.6882L55.9649 33.8743C55.5515 34.8022 55.4183 36.0351 55.4592 37.1761C55.5004 38.3253 55.7242 39.5445 56.1561 40.4664L57.9672 39.6179ZM57.8203 34.6171C59.4143 30.1459 62.9533 25.9673 67.2363 24.6112L66.6326 22.7045C61.5846 24.3028 57.673 29.0744 55.9364 33.9455L57.8203 34.6171ZM67.2364 24.6112C70.2589 23.6541 72.8815 24.0594 74.7502 25.5695C76.6333 27.0914 77.9557 29.9006 78 34.1681L79.9998 34.1474C79.9517 29.5044 78.503 26.0309 76.0073 24.014C73.4971 21.9854 70.1332 21.596 66.6326 22.7045L67.2364 24.6112Z" fill="black" mask="url(#path-9-inside-5_443_270)"/>
</g>
<defs>
<filter id="filter0_d_443_270" x="0" y="0" width="79" height="47.3608" filterUnits="userSpaceOnUse" color-interpolation-filters="sRGB">
<feFlood flood-opacity="0" result="BackgroundImageFix"/>
<feColorMatrix in="SourceAlpha" type="matrix" values="0 0 0 0 0 0 0 0 0 0 0 0 0 0 0 0 0 0 127 0" result="hardAlpha"/>
<feOffset dx="-1" dy="1"/>
<feComposite in2="hardAlpha" operator="out"/>
<feColorMatrix type="matrix" values="0 0 0 0 0 0 0 0 0 0 0 0 0 0 0 0 0 0 1 0"/>
<feBlend mode="normal" in2="BackgroundImageFix" result="effect1_dropShadow_443_270"/>
<feBlend mode="normal" in="SourceGraphic" in2="effect1_dropShadow_443_270" result="shape"/>
</filter>
</defs>
</svg>
