<svg width="29" height="21" viewBox="0 0 29 21" fill="none" xmlns="http://www.w3.org/2000/svg">
<path d="M28.2283 17.2258C28.1566 17.4976 28.1 17.7775 28.0102 18.0414C27.7361 18.8881 27.1957 19.6234 26.4695 20.1379C25.7433 20.6524 24.8702 20.9182 23.9806 20.896C17.4017 20.9076 10.8227 20.9076 4.24383 20.896C3.27372 20.9208 2.326 20.6025 1.56755 19.9971C0.809106 19.3917 0.288593 18.5381 0.0976432 17.5867C0.0357475 17.2995 0.00464233 17.0067 0.00472772 16.7129C-0.00157591 13.2028 -0.00157591 9.693 0.00472772 6.18345C0.00472772 6.12987 0.00942621 6.07634 0.0141539 5.98415C0.129195 6.05034 0.222118 6.10155 0.311945 6.15671C4.5669 8.75381 8.8201 11.354 13.0714 13.9574C13.3731 14.1683 13.7322 14.2815 14.1004 14.2815C14.4685 14.2815 14.8277 14.1683 15.1294 13.9574C19.4043 11.3403 23.6843 8.73176 27.9692 6.13151C28.0551 6.0795 28.1441 6.03206 28.2316 5.98242L28.2283 17.2258Z" fill="#FDE512"/>
<path d="M14.1361 0.0988176C17.3883 0.0988176 20.6405 0.0988176 23.8926 0.0988176C24.6693 0.0662038 25.4391 0.255559 26.112 0.644768C26.7849 1.03398 27.3331 1.60697 27.6922 2.29647C27.8147 2.55331 27.9238 2.81631 28.0192 3.08443C28.1082 3.29008 28.0523 3.39953 27.8553 3.52246C24.9761 5.27119 22.1006 7.02608 19.2288 8.7869C17.6003 9.78182 15.9717 10.778 14.3433 11.7756C14.2842 11.8229 14.2112 11.849 14.1355 11.85C14.0599 11.851 13.9861 11.8267 13.9259 11.781C9.40825 9.01945 4.88615 6.26351 0.359613 3.51303C0.320759 3.49716 0.285574 3.47347 0.256309 3.44339C0.227044 3.41331 0.204349 3.37744 0.189556 3.33816C0.174763 3.29889 0.16817 3.25696 0.170319 3.21505C0.172468 3.17313 0.183137 3.13218 0.201868 3.09462C0.460277 2.20952 1.00524 1.43523 1.75123 0.893312C2.49722 0.351395 3.40218 0.0724816 4.32381 0.100357C7.59487 0.0961542 10.8656 0.0956658 14.1361 0.0988176Z" fill="#FDE512"/>
</svg>
