<svg width="29" height="23" viewBox="0 0 29 23" fill="none" xmlns="http://www.w3.org/2000/svg">
<path d="M28.2786 1.78927C28.1169 2.51657 27.9552 3.23737 27.7936 3.96224C26.6154 9.47891 25.4384 14.9957 24.2623 20.5123C24.1758 20.9164 24.1006 21.3204 23.9964 21.7245C23.6489 23.0377 22.6904 23.3706 21.5898 22.5657C19.7042 21.1882 17.8211 19.8089 15.9403 18.4281C15.39 18.0241 15.3908 18.0241 14.9059 18.4863C13.9901 19.3613 13.0743 20.2365 12.1585 21.1119C12.0158 21.2586 11.8446 21.3744 11.6552 21.4518C11.4658 21.5293 11.2623 21.5668 11.0578 21.562C11.0836 21.1749 11.1071 20.7952 11.1337 20.4154C11.2533 18.7321 11.3706 17.048 11.5023 15.3647C11.522 15.2199 11.5913 15.0865 11.6986 14.9873C15.5021 11.5615 19.3091 8.14051 23.1196 4.72438C23.1535 4.69448 23.2004 4.67097 23.219 4.63461C23.2926 4.50208 23.3581 4.36551 23.4268 4.23056C23.2693 4.17547 23.1037 4.14681 22.9369 4.14572C22.7539 4.189 22.5812 4.26723 22.4279 4.37606C17.7021 7.32888 12.9788 10.2854 8.25781 13.2458C8.16296 13.3147 8.05241 13.3592 7.93623 13.3751C7.82005 13.391 7.70187 13.378 7.59195 13.3371C5.63553 12.7149 3.67166 12.1152 1.71523 11.4954C1.45066 11.4127 1.20064 11.2892 0.974205 11.1293C0.8887 11.0846 0.815896 11.0191 0.762511 10.9387C0.709126 10.8583 0.677056 10.7657 0.668995 10.6696C0.660935 10.5734 0.677285 10.4768 0.716542 10.3886C0.7558 10.3005 0.816647 10.2236 0.893513 10.1653C1.15923 9.91277 1.46855 9.71076 1.80658 9.56897C3.64825 8.84167 5.50131 8.13774 7.35106 7.42984C13.6807 5.00552 20.0109 2.5839 26.3416 0.16497C26.5228 0.0912309 26.713 0.0421139 26.9072 0.0187766C27.0541 -0.00850687 27.205 -0.00604291 27.3509 0.0260763C27.4968 0.0581956 27.6349 0.119267 27.7567 0.20571C27.8786 0.292154 27.9818 0.402169 28.0604 0.529268C28.1389 0.656368 28.191 0.797992 28.2139 0.945652C28.2276 0.997371 28.2488 1.04579 28.2665 1.09589L28.2786 1.78927Z" fill="#FDE512"/>
</svg>
