<svg width="29" height="23" viewBox="0 0 29 23" fill="none" xmlns="http://www.w3.org/2000/svg">
<path d="M0.523438 20.4135C3.56026 20.7386 6.6053 19.8772 9.02176 18.0093C8.21636 17.9847 7.42455 17.7946 6.69578 17.4508C5.96701 17.1071 5.3169 16.6171 4.78569 16.0112C4.25756 15.4306 3.87032 14.736 3.6541 13.9815C4.48636 14.111 5.3361 14.072 6.15298 13.8667C4.85695 13.5733 3.6997 12.8467 2.87223 11.8069C2.04475 10.7672 1.59644 9.47647 1.60138 8.14765C2.01175 8.30077 2.40917 8.48607 2.82643 8.60167C3.24361 8.7058 3.66951 8.77059 4.09877 8.79532C3.43297 8.31575 2.87411 7.7032 2.45727 6.99644C2.04043 6.28967 1.77482 5.50404 1.67727 4.68933C1.51061 3.43935 1.77554 2.16996 2.4283 1.09101C3.88926 2.87724 5.70768 4.33798 7.76681 5.37961C9.82594 6.42124 12.0802 7.02065 14.3848 7.13924C14.2448 6.40159 14.2247 5.6463 14.3251 4.90223C14.5006 3.80968 14.9836 2.78968 15.7177 1.96166C16.4517 1.13364 17.4064 0.531725 18.47 0.226521C19.4582 -0.0591705 20.5049 -0.074904 21.5012 0.180914C22.4976 0.436731 23.4073 0.954871 24.1356 1.68129C24.1849 1.72066 24.2417 1.7495 24.3025 1.76596C24.3634 1.78243 24.4269 1.78616 24.4893 1.77699C25.6091 1.54874 26.6866 1.14737 27.6827 0.587269C27.7532 0.547458 27.8273 0.510707 27.9521 0.451755C27.5325 1.73333 26.6929 2.83576 25.5689 3.58073C26.6379 3.46316 27.6831 3.18626 28.6702 2.75923L28.7308 2.8297C28.2637 3.37635 27.8196 3.94524 27.322 4.46279C26.9285 4.87162 26.4615 5.21075 26.0412 5.59662C25.9402 5.69068 25.8777 5.8189 25.8659 5.95643C25.8582 11.9351 23.5031 16.7385 18.6362 20.2396C16.5883 21.6714 14.2138 22.5663 11.7304 22.8426C9.38682 23.1633 7.00219 22.9927 4.72812 22.3419C3.28485 21.9255 1.90733 21.3084 0.635961 20.5084C0.596719 20.4789 0.559167 20.4472 0.523438 20.4135Z" fill="#FDE512"/>
</svg>
